<?xml version="1.0" encoding="UTF-8"?>
<svg id="Layer_2" data-name="Layer 2" xmlns="http://www.w3.org/2000/svg" viewBox="0 0 59.53 70.41">
  <g id="Layer_1-2" data-name="Layer 1">
    <path d="M25.81,55.36c-2.23-.88-4.89-2.57-5.56-4.95-.28-.99.67-1.93,1.64-1.59,2.54.87,3.03,3.55,7.08,3.98,5.03.53,6.72-.92,10.04-3.56.52-.41,1.26-.37,1.73.09h0c.45.45.5,1.15.14,1.68-3.39,4.99-9.26,6.64-15.07,4.34"/>
    <path d="M46.37,32.22c2,1.44-2.62,9.15-8.74,6.01-1.68-.86-4.13-3.73-2.84-5.65,1.4-1.88,3.19,2.05,4.05,2.62,3.99,2.62,5.38-4.52,7.53-2.98"/>
    <path d="M13.79,35.22c1.28-.28,2.08,2.32,3.1,2.97,3.21,2.07,4.47-1.11,6.64-2.97,3.43.83.27,5.21-1.79,6.13-7,3.13-11.11-5.45-7.95-6.13Z"/>
    <path d="M46.6.14c1.21,4.68-1.5,10.34-5.55,12.97-2.78,1.8-5.17,1.99-8.16,2.82-.84.24-1.39-.37-1.15,1.06,10.93-4.07,22.96.6,26.52,12.06,4.76,15.31-4.14,43.44-23.79,41.22-1.69-.19-3.51-1.37-4.89-1.34s-3.52,1.11-5.12,1.29C-.91,73.1-9.93,23.82,13.84,16.28c5.55-1.76,9.4-1.11,14.91.22-.4-2.07-.86-4.12-1.61-6.1-.47-1.24-2.31-3.92-2.38-4.63-.18-1.77,1.49-2.44,2.43-.9l3.05,5.16C31.86,2.95,39.67-.79,46.6.14ZM44.19,2.56c-6.56.33-10.91,4.15-12.45,10.45,6.12.42,12.16-4.09,12.45-10.45ZM17.18,18.13c-23.54,3.22-15.96,50.9,5.83,49.66,2.27-.13,4.98-1.58,6.97-1.52,1.67.05,3.36,1.25,5.04,1.47,22.73,3,32.93-49.81,4.53-49.56-3.24.03-7.1,1.9-9.53,1.82-1.97-.06-4.27-1.68-6.55-1.96-1.82-.23-4.46-.18-6.29.07Z"/>
  </g>
</svg>
