<?xml version="1.0" encoding="UTF-8"?>
<svg id="Layer_2" data-name="Layer 2" xmlns="http://www.w3.org/2000/svg" viewBox="0 0 80.47 92.64">
  <g id="Layer_1-2" data-name="Layer 1">
    <path d="M34.41,61.66c-7.87.71-8.81-10.38-2.5-11.83,9.7-2.24,11.45,11.03,2.5,11.83"/>
    <path d="M21.38,38.79c1.26,1.27,1.05,6.12-1.26,6.48-5.62.87-2.75-10.54,1.26-6.48Z"/>
    <path d="M42.82,41.72c-6.19,1.66-4.63-9.58-.24-6.44,2.06,1.47,1.39,4.59.24,6.44Z"/>
    <path d="M26.21,11.06c-.65.76-3.89-3.18-4.66-3.72-3.25-2.28-9.51-3.47-12.61-.51l2.58,6.51,4.87,4.65C4.29,19.48-.09,32.36.8,43.12c.27,3.26,2.72,9,2.76,11.09.01.71-2.33,4.17-2.8,5.64-1.25,3.88-.86,9.09.42,12.94,1.6,4.84,8.76,5.14,6.11-.92-.69-1.59-2.44-1.86-3.31-3.04-1.8-2.44-1.03-8.13,1.15-10.39l8.42,8.9c2.73,1.85,5.75,3.74,9.17,3.83-.32,5.15-1.28,10.49.02,15.58-2.12.56-7.84.37-8.06,3.17l.51,1.64c.88,1.32,6.16,1.15,7.78.91,5.65-.83,2.77-3.95,2.63-7.72-.07-2.01-.23-12.77.68-13.52,9.19-1.28,14.13-7.2,15.45,6.06.24,2.45-.5,11.89-.1,12.76,1.69,3.69,12.52,3.26,11.09-1.19-.75-2.02-6.93-2.07-7.38-2.77.26-5.91-.75-11.61-2.39-17.25,7.06-1.04,12.21-8.07,14.5-14.41,4.48.74,8.18,2.04,12.65.25,1.07-.43,8.17-5.83,8.92-6.68,1.56-1.79,2.26-4.74-.05-6.23-6.12-.39-4.65,6.59-8.9,9.41-3.43,2.29-7.43,1.94-10.98.04.12-4.42.99-8.82.64-13.31-.88-11.36-10.29-25.51-23.16-23.11-2.71.51-4.97,2.24-7.48,3.2-.43-5.58.04-8.82,2.98-13.48.72-1.14,3.72-3.31.67-4.36-4.3-1.48-6.99,7.66-6.55,10.9ZM12.35,8.18c6.25-.97,11.08,3.52,12.71,9.24-5.56-.16-11.05-3.79-12.71-9.24ZM40.19,17.55c8.98.64,15.7,11.6,16.58,19.87,1.1,10.44-3.41,27.92-16.02,28.77-1.9.13-3.93-.48-6.1-.19-5.85.76-8.62,4.3-15.75,1.21C.07,59.07-2.5,19.11,20.14,20.89c2.2.17,5.78,1.89,7.5,1.72,3.1-.31,6.49-5.49,12.55-5.05Z"/>
  </g>
</svg>
