<?xml version="1.0" encoding="UTF-8"?>
<svg id="Layer_2" data-name="Layer 2" xmlns="http://www.w3.org/2000/svg" viewBox="0 0 60.03 70.91">
  <defs>
    <style>
      .cls-1 {
        fill: #006900;
      }

      .cls-2 {
        stroke: #000;
        stroke-miterlimit: 10;
        stroke-width: .5px;
      }

      .cls-3 {
        fill: #d00;
      }
    </style>
  </defs>
  <g id="Layer_1-2" data-name="Layer 1">
    <g>
      <path class="cls-1" d="M44.25,2.81c-6.56.33-10.91,4.15-12.45,10.45,6.12.42,12.16-4.09,12.45-10.45Z"/>
      <path class="cls-3" d="M31.95,17.94c10.68-3.97,22.43.59,25.9,11.78,4.64,14.95-4.04,42.43-23.24,40.26-1.65-.19-3.43-1.34-4.78-1.31s-3.44,1.08-5,1.26C.06,72.72-8.75,24.6,14.46,17.23c5.42-1.72,9.18-1.09,14.56.22"/>
      <path class="cls-2" d="M46.85.39c1.21,4.68-1.5,10.34-5.55,12.97-2.78,1.8-5.17,1.99-8.16,2.82-.84.24-1.39-.37-1.15,1.06,10.93-4.07,22.96.6,26.52,12.06,4.76,15.31-4.14,43.44-23.79,41.22-1.69-.19-3.51-1.37-4.89-1.34s-3.52,1.11-5.12,1.29C-.66,73.35-9.68,24.07,14.09,16.53c5.55-1.76,9.4-1.11,14.91.22-.4-2.07-.86-4.12-1.61-6.1-.47-1.24-2.31-3.92-2.38-4.63-.18-1.77,1.49-2.44,2.43-.9l3.05,5.16C32.11,3.2,39.92-.54,46.85.39ZM44.44,2.81c-6.56.33-10.91,4.15-12.45,10.45,6.12.42,12.16-4.09,12.45-10.45ZM17.43,18.38c-23.54,3.22-15.96,50.9,5.83,49.66,2.27-.13,4.98-1.58,6.97-1.52,1.67.05,3.36,1.25,5.04,1.47,22.73,3,32.93-49.81,4.53-49.56-3.24.03-7.1,1.9-9.53,1.82-1.97-.06-4.27-1.68-6.55-1.96-1.82-.23-4.46-.18-6.29.07Z"/>
      <path class="cls-2" d="M39.76,46.18c3.06-.96,1.1,3.2-.04,4.44-4.5,4.92-14.78,4.87-18.94-.5-.63-.81-2.21-2.89-.44-3.45,1.95-.62,2.25,1.45,3.41,2.47,3.41,3.02,8.53,3.37,12.39.89,1.23-.79,3.3-3.76,3.62-3.86Z"/>
      <path class="cls-2" d="M21.36,32.79c3.82.04,3.52,7.09.39,7.39-3.84,0-3.52-7.11-.39-7.39Z"/>
      <path class="cls-2" d="M36.6,33.32c3.91-3.6,6.32,8.06.37,6.6-1.99-.98-1.8-5.28-.37-6.6Z"/>
    </g>
  </g>
</svg>