<?xml version="1.0" encoding="UTF-8"?>
<svg id="Layer_2" data-name="Layer 2" xmlns="http://www.w3.org/2000/svg" viewBox="0 0 91.79 90.77">
  <defs>
    <style>
      .cls-1 {
        fill: none;
        stroke: #000;
        stroke-miterlimit: 10;
        stroke-width: 3px;
      }
    </style>
  </defs>
  <g id="Layer_1-2" data-name="Layer 1">
    <path class="cls-1" d="M54.41,1.86c.23.02,3.16.86,4.58,1.14,10.72,3.48,26.69,17.71,29.77,28.62.25.87,1.06,4.09,1.14,4.58.53,3.2.5,15.07,0,18.32-.03.18-.77,1.9-1.14,3.43-.07.27-.92,2.83-1.14,3.43-3.26,8.82-18.63,23.84-27.48,26.33-.88.25-4.07,1.06-4.58,1.14-3.12.52-16.37.53-19.46,0-.54-.09-3.79-.91-4.58-1.14-9.35-2.77-24.27-18.3-27.48-27.48-.28-.79-1.04-3.03-1.14-3.43-.21-.83-1.09-5.21-1.14-5.72-.32-2.91-.35-8.57,0-11.45.08-.64.93-4.92,1.14-5.72C6.07,22.01,20.61,6.24,32.66,3.01c.87-.23,4.31-1.1,4.58-1.14,3.75-.55,13.25-.42,17.17,0Z"/>
    <path class="cls-1" d="M65.55,13.21c.21.04.81.14.96.19.16.05.44.13.58.19,1.82.75,4.03,3.16,4.63,5.01.05.22.19.73.19.77.06.61.08,1.91,0,2.51,0,.04-.15.61-.19.77-.02.07-.15.45-.19.58-.65,1.86-2.98,4-4.82,4.63-.31.07-.55.19-.58.19-.67.09-2.83.11-3.47,0-.03,0-.34-.13-.58-.19-.06-.02-.49-.16-.58-.19-1.61-.62-3.68-2.99-4.24-4.63-.07-.32-.19-.55-.19-.58-.1-.75-.1-2.72,0-3.47,0-.03.13-.26.19-.58.57-1.67,2.77-4.21,4.43-4.82.18-.07.55-.14.77-.19.18-.04.82-.17.96-.19.55-.07,1.54-.04,2.12,0Z"/>
    <path class="cls-1" d="M42.82,8.08c.3.04.9.12,1.16.19.14.04.45.14.58.19,1.63.66,4.15,2.93,4.63,4.63.04.15.18.68.19.77.09.54.09,2.74,0,3.28-.01.09-.15.62-.19.77-.41,1.46-3,4.09-4.43,4.63-.11.04-.5.17-.58.19-.14.04-.85.18-.96.19-.55.07-1.76.07-2.31,0-.04,0-.6-.15-.77-.19-.22-.05-.59-.13-.77-.19-1.69-.62-3.86-3.12-4.43-4.82-.07-.32-.19-.55-.19-.58-.08-.66-.1-2.65,0-3.28.01-.08.15-.62.19-.77.46-1.64,3.03-4.07,4.63-4.63.13-.05.52-.18.58-.19.28-.07.86-.16,1.16-.19.44-.05,1.08-.02,1.54,0Z"/>
    <path class="cls-1" d="M50.96,28.18s.53.15.77.19c1.8.59,4.49,2.98,5.01,4.82.04.15.18.69.19.77.09.54.08,2.54,0,3.08,0,.03-.13.32-.19.58-.01.05-.16.48-.19.58-.55,1.48-3.14,4.01-4.63,4.43-.15.04-.69.18-.77.19-.53.09-2.76.09-3.28,0-.09-.02-.64-.15-.77-.19-1.57-.47-4.09-3.08-4.63-4.63-.05-.13-.18-.51-.19-.58-.04-.14-.18-.88-.19-.96-.05-.49-.06-1.44,0-1.93.01-.11.16-.83.19-.96.53-2.01,2.98-4.66,5.01-5.2.15-.04.72-.19.77-.19.63-.09,2.23-.07,2.89,0Z"/>
  </g>
</svg>
