<?xml version="1.0" encoding="UTF-8"?>
<svg id="Layer_2" data-name="Layer 2" xmlns="http://www.w3.org/2000/svg" viewBox="0 0 53.63 81.17">
  <defs>
    <style>
      .cls-1 {
        fill: none;
        stroke: #000;
        stroke-linecap: round;
        stroke-linejoin: round;
        stroke-width: 3px;
      }
    </style>
  </defs>
  <g id="Layer_1-2" data-name="Layer 1">
    <g>
      <path class="cls-1" d="M46.39,70.87l.09-.19c1.64-2.85,2.15-6.2,2.48-9.47.87-8.66-1.07-18.09-5.61-25.52-2.08,1.8-2.51,5.16-5.27,6.13-2.18.39,1.22-9.68,1.34-10.6.24-1.8-.92-3.05-1.99-4.51-4.72-6.44-14.47-14.16-21.25-18.45-.06-.04-.14-.06-.2-.1C11.63,5.43,7.07,2.63,1.97,1.5c-1.54,10.72.87,22.15,4.26,32.3l13.46,3.2c.45.08.45.17,0,.25l-11.35,2.64c-.22,1.33,5.67,11.24,6.89,12.03s8.44,1.73,8.66,2.51c-.56.87-4.68,2.53-4.28,3.39,2.56,5.61,20.36,13.79,26.77,13.06h0Z"/>
      <line class="cls-1" x1="19.14" y1="28.01" x2="52.13" y2="79.67"/>
    </g>
  </g>
</svg>
