<?xml version="1.0" encoding="UTF-8"?>
<svg id="Layer_1" data-name="Layer 1" xmlns="http://www.w3.org/2000/svg" viewBox="0 0 331.39 393.89">
  <path d="M182.24,285.56c-5.45.05-14.2-4.69-18.71-4.69s-14.72,4.55-20.12,4.91l1.18,49.98c-9.98,2.51-20.76,5.19-30.65,1.01-7.82-13.11,21.12-7.41,22.73-8.92l-2.7-40.3-1.63-2.12c-29.67-5.27-48.41-32.02-58.32-58.46-6.28,0-12.22,20.06-12.2,25.25.04,8.79,11.1,17.56,9.52,24.06-.42,1.71-3.46,4.85-5.4,4.4-3.17-.74-5.42-14.92-8.97-11.39l-2.35,16.37-7.42,1.53c-.1-4.96-.33-9.82.72-14.74,1.11-5.23,6.57-10.69,6.75-12.03.99-7.28-1.26-13.49,1.8-23.35,2.26-7.26,13.3-20.24,13.51-22.31.48-4.62-4.68-20.26-4.95-27.56-2-53.88,38.72-94.99,92.79-74.11.51-6.21-1.88-12.18-4.08-17.86-2.26-5.81-12.51-18.62-9.77-22.85,1.6-2.47,3.25-1.43,5.32-.37l13.41,19.92c6.42-23.88,28.42-37.36,52.67-35.55,7.98,2.67-3.3,27.97-7.1,33.12-10.33,14.02-21.69,15.55-36.88,20.14-2.66.81-4.59-1.3-3.78,3.45,8.17.09,15.61-4.07,23.6-4.86,65.25-6.43,81.3,66.11,62.63,115.49,7.39,2.15,25.02-19,24.16-23.33-.58-2.93-6.65-4.54-5.62-10.89.73-4.45,4.65-6.47,5.51-9.24,1.03-3.33.04-21.15,6.9-17.57,5.37,2.8,2.16,10.06,3.19,14.35.42,1.76,12.17,10.09,11.14,16.24-1.49,8.97-10.19,7.87-13.56,10.93-3.81,3.46-6.73,14.49-14.68,21.11-6.53,5.45-19.49,8.3-21.53,10.2-1.88,1.76-7.63,14.08-10.45,18.01-11.97,16.68-25.88,27.23-46.17,31.92.43,3.82-2.34,11.49-2.34,13.93v28.47c8,.71,28.03-3.83,22.45,9.46-9.94,2.27-20.59,3.23-30.59.3v-52.06ZM208.27,65.92c-21.18-.92-37.03,15.25-39.03,35.78,19.63-3.18,37.15-14.62,39.03-35.78ZM119.99,116.74c-70.24,11.04-50.42,141.12,6.9,158.27,17.9,5.35,22.91-2.46,36.63-2.47,4.59,0,9.66,2.79,14.66,3.24,84.33,7.46,106.1-168.15,14.83-159.23-8.97.88-22.95,8.12-29.34,7.84s-16.41-6.9-24.72-7.87c-5.48-.64-13.52-.64-18.96.22ZM286.36,186.32c-3.07-.52-5.41,1.9-4.86,4.87l4.86-1.65v-3.23Z"/>
  <path d="M137.72,209.22c9.5,1.34,16.95,6.72,27.42,6.51s29.54-13.8,28.42.49c-1.67,21.52-28.84,33.54-46.3,20.51-6.81-5.08-17.32-19.83-9.55-27.52Z"/>
  <path d="M134.6,167.09c16-4.7,12.99,31-2.82,21.67-5.1-5.31-5.11-19.34,2.82-21.67Z"/>
  <path d="M194.87,168.81c10.67,28.66-24.24,26.23-11.54-.52,3.76-1.97,7.97-1.94,11.54.52Z"/>
</svg>