<?xml version="1.0" encoding="UTF-8"?>
<svg id="Layer_1" data-name="Layer 1" xmlns="http://www.w3.org/2000/svg" viewBox="0 0 331.39 393.89">
  <path d="M165.77,285.95l-4.88,64.12c-26.28,12.57-47.02-1.22-7.38-8.39l2.34-54.6-13.8-3.41,1.71-47.71c-1.87-2.01-11.8,9.59-13.95-3.08-1.18-6.94,6.48-43.19,9.89-50.09,3.78-7.64,13.3-9.77,20.09-13.86-4.48-7.03-11.68-9.95-16.51-17.49-11.33-17.7-10.29-56.54.81-74.17,10.06-15.98,15.24-8.27,27.8-12.21,3.89-1.22,7.3-6.65,9.16-6.98,2.22-.39,5.95,4.43,9.76,5.83,12.04,4.41,19.23-1.91,28.62,11.37,17.33,24.49,13.75,66.55-7.63,87.79-2.95,2.93-7.42,1.66-6.04,6.86,2.41.08,5.33.34,7.41,1.56,6.99,4.07,37.04,43.77,36.58,51.32-.51,8.4-14.99,17.54-19.95,24.19l-.02,2.91c13.21,4.61,11.44,13.08-1.69,16.34l-1.19,17.82-13.14,1.86-1.97,55.99c8.62.43,23.15.42,21.97,12.01l-29.99-3.99v-64h-38ZM183.11,68.38c-2.29.21-5.08,3.09-8.44,3.49-16.9,2.02-22.1-3.08-29,16.99-9.26,26.94-5.15,74.65,31.12,77.23,2.87.2,22.08-3.63,25.48-4.63,25.89-7.57,25.72-62.53,12.36-81.37-8.03-11.31-11.04-6.57-21.76-8.22-3.58-.55-6.78-3.76-9.76-3.49ZM194.78,168c-7.56,5.54-17.75,5.26-17.21,16.95.93,19.98,29.4-4.4,17.21-16.95ZM155.77,209.93c2.89,2.47,14.44-13.31,15.22-15.93,1.27-4.27-.47-9.23,1.89-17.99,1.61-5.98-2.74-8.21-7.72-3.55-6.22,5.82-7.88,4.75-13.33,8.57-11.14,7.81-9.81,34.4-14.05,46.93,11.74-5.76,10.27-17,12.95-28.03l6.96,1.19-1.93,8.82ZM209.75,177.94c-7.98-2.08-7.11,6.94-11.43,13.6-1.96,3.02-4.38,3.41-6.6,5.6,5.67,26.56,3.77,53.83,4.03,80.82l26-.02-12.01-100ZM223.78,237.94c2.15,2.51,17.26-13.21,17.33-16.98l-21.32-27.01,3.99,43.99ZM147.77,277.95h40c5-25.31.28-51.24.12-76.77l-7.24-2.59-27.03,30.21-5.85,49.15Z"/>
  <path d="M131.75,189.96l-1.15,6.16c-11.8,6.2-25.78-5.03-26.9-17.14-.53-5.71,1.97-12.11,1.46-15.71-.48-3.35-4.88-7.48-5.43-14.36-.99-12.45,7.6-18.79,7.41-21.95-.27-4.48-8.25-9.18-4.94-23.6,1.63-7.07,10.36-10.93,11.26-14.81.73-3.14-2.26-11.05-1.54-17.42,3.18-28.11,28.33-40.77,54.67-37.01,5.31.76,12.53,5.65,15.84,5.37,3.05-.26,8.26-4.28,12.81-5.07,26.52-4.59,52.33,10.51,54.56,38.53.43,5.44-2.06,13.17-1.57,15.76s7.08,6.92,9.23,10.53c10.27,17.24-2.37,23.41-1.29,29.35.88,4.86,8.2,10.12,7.72,20.32-.3,6.42-5.19,10.2-5.75,14.46-.52,3.97,2.05,8.61,1.76,13.54-.63,10.74-16.21,25.08-18.14,16-.87-4.11,12.99-7.03,11.59-19.5-.38-3.4-3.69-7.23-3.53-10.57.2-3.98,7.64-8.12,7.63-15.9,0-9.3-8.37-12.33-9.45-16.4-1.84-6.93,12.59-11.91,1.42-31.27-1.87-3.24-6.51-5.83-7.36-8.77-1.42-4.94,1.8-9.89,1.58-15.27-.95-23.65-24.13-38.66-46.42-34.8-5.98,1.04-13.99,7.51-16.48,7.51s-8.74-5.39-13.36-6.63c-23.52-6.33-47.39,7.55-48.72,32.56-.3,5.64,3.21,11.83,2.63,14.84-.68,3.54-12.25,10.38-13.51,20.43-1.38,11.09,6.98,13.47,7.7,18.18.57,3.7-13.1,11.79-8.9,24.73,1.35,4.16,7.05,7.03,7.13,10.85.06,3-3.04,5.74-3.63,8.55-2.61,12.55,8.87,25.19,21.63,18.51Z"/>
  <path d="M182.37,235c-2.62-2.62,4.31-8.38,5.41-3.36.63,2.86-4.42,4.35-5.41,3.36Z"/>
  <path d="M182.37,245.69c-2.62-2.62,4.31-8.38,5.41-3.36.63,2.86-4.42,4.35-5.41,3.36Z"/>
  <path d="M182.37,213.77c-2.62-2.62,4.31-8.38,5.41-3.36.63,2.86-4.42,4.35-5.41,3.36Z"/>
  <path d="M182.37,224.3c-2.62-2.62,4.31-8.38,5.41-3.36.63,2.86-4.42,4.35-5.41,3.36Z"/>
  <path d="M171.06,116.14c2.23,2.32,2.46,10.58-1.55,11.5-4.77,1.1-5.92-7.77-4.61-10.99.95-2.35,4.64-2.09,6.16-.5Z"/>
  <path d="M208.26,112.24c1.94,2.32,2.01,7.81-.24,9.98-4.01,3.88-8.39-6.43-5.32-10.28,1.53-1.92,4.14-1.4,5.56.29Z"/>
  <path d="M177.29,101c.37,3.64-3.44,1.41-4.99,1.15-.81-.14-2.66-.12-3.51-.04-2.22.21-7.55,3.05-7.05-1.24.27-2.32,3.37-2.98,5.3-3.21,2.35-.28,9.96.51,10.25,3.35Z"/>
  <path d="M191.16,137.36c-3.72-.07-8.76.77-8,6.02,16.9,1.81,15.97-4.39,9.61-16.7-.97-1.88-.86-6.55-4.59-5.27-5.81,2,2.84,12.72,2.98,15.95Z"/>
  <path d="M193.97,150.01c1.72.14,3.02,1.81,2.59,3.48-.4,1.57-1.85,2.32-4.05,3.32-7.39,3.35-18.69,2.48-22.65-5.05-.55-1.04-.45-2.3.27-3.22h0c.76-.97,2.05-1.38,3.23-.98,2.97,1,6.06,2.29,9.08,2.64,4.01.46,7.86-.48,11.54-.18Z"/>
  <path d="M213.47,106.63c.37,3.64-3.44,1.41-4.99,1.15-.81-.14-2.66-.12-3.51-.04-2.22.21-7.55,3.05-7.05-1.24.27-2.32,3.37-2.98,5.3-3.21,2.35-.28,9.96.51,10.25,3.35Z"/>
</svg>