<?xml version="1.0" encoding="UTF-8"?>
<svg id="Layer_1" data-name="Layer 1" xmlns="http://www.w3.org/2000/svg" viewBox="0 0 331.39 393.89">
  <path d="M180.47,172.36l10.3-10.06c.22-.21.41-.44.57-.7,11.56-18.83,11.77-60.04-1.05-78.16-9.68-13.68-16.28-7.67-28.55-11.45-4.32-1.33-8.74-6.59-9.32-6.59s-5.4,5.94-8.89,7.02c-12.13,3.78-16.86-3.73-26.98,11.02-15.27,22.23-13.66,68.54,8.19,88.86,1.98,1.84,1.27,5.06-1.26,5.99-12.34,4.54-21.99,21.92-27.66,32.41s-21.93,55.21-22.22,65.86c-.42,15.55,10.44,8.16,12.17-2.34.41-2.48,3.09-3.85,5.27-2.61,3.59,2.03,7.54,2.93,8.39-1.35.58-2.95-8.08-10.86-9.19-14.93-2.93-10.69,11.44-37.14,22.68-51.12,2.15-2.68,6.46-1.09,6.37,2.35-.79,30.49-5.53,60.83-11.11,90.75-.41,2.23,1.31,4.27,3.57,4.23,5.35-.1,14.05-.64,16.74-.25,2.95.43,3.23-1.17,2.96,2.99-.33,5.17-8.58,43.07-10.38,44.66-2.05,1.82-16.52,1.41-21.96,6.83-1.84,1.83-1.09,5.02,1.36,5.85,7.26,2.47,25.31-1.9,27.89-6.4,2.27-3.96,7.16-23.7,8.48-29.52,2.3-10.17,4.66-20.59,4.66-31.06,0-1.89,1.46-3.46,3.35-3.58l29.83-1.85c1.53-.1,2.98.79,3.54,2.22,3.9,10.04-1.3,49.57-2.38,62.61-.14,1.7.93,3.26,2.57,3.73,7.87,2.26,25.32,8.14,27.01,2.49,2.28-7.61-11.58-8.85-17.52-10.67-1.55-.47-2.56-1.95-2.49-3.57l1.87-41.56c.08-1.81,1.51-3.28,3.32-3.41l9.03-.64c2.07-.15,3.59-2.02,3.29-4.08l-14.89-102.86c-.32-2.18,1.4-4.11,3.6-4.09,46.14.58,57.67-18.11,68.43-60.46,1.82-7.17,2.34-19.74,4.68-25.19,1.76-4.08,7.63-3.18,10.49-7.64,7.42-11.54-.61-23.94-12.89-25.01-1.6-.14-2.9-1.34-3.19-2.92l-3.07-17.01c-.37-2.07-2.45-3.37-4.48-2.81l-1.05.29c-1.56.43-2.65,1.86-2.62,3.48.16,10.48,7.82,43.88,7.54,52.05-.44,12.74-9.28,47.15-16.4,57.78-12.49,18.65-36.09,19.48-56.65,16.48-2.92-.43-4.07-4.03-1.96-6.1ZM154.11,75.82c4.64.52,14.16,2.64,20.19,3.61,19.17,3.09,20.9,43.83,18.95,58.71-5.41,41.34-54.98,53.21-74.63,14.97-7.92-15.42-8.47-67.05,10.69-72.91,1.86-.57,23.56-4.52,24.81-4.38ZM266.89,80.15c4.53,3.06,3.8,11.91-1.43,12.83-2.13.37-4.05-1.39-4.05-3.55v-6.24c.02-2.8,3.15-4.6,5.48-3.04ZM142.03,180.84l9.12,3.01c1.42.47,2.39,1.76,2.45,3.25l3.67,92.5c.08,2.03-1.54,3.72-3.57,3.72h-14.65c-2,0-3.62-1.64-3.58-3.65l1.86-95.51c.05-2.41,2.41-4.08,4.7-3.33ZM159.44,203.3c-1.77-12.31-6.53-25.65,9.85-21.5,1.42.36,2.48,1.54,2.68,2.99l12.91,94.47c.29,2.15-1.38,4.06-3.54,4.06h-14.52c-1.9,0-3.48-1.49-3.57-3.4l-3.8-74.61"/>
  <path d="M93.42,197.33c-6.66,1.34-11.47-7.66-11.99-13.22-.59-6.26,4.1-10.55,3.59-13.44-.4-2.3-4.92-6.49-6.11-9.92-4.8-13.84,8.91-21.51,8.19-26.08-.57-3.62-8.08-8.7-7.66-16.2.53-9.46,12.79-16.71,13.52-20.4.66-3.35-3.5-10.32-3.36-15.56.61-23.65,24.45-38.5,46.34-34.7,5.98,1.04,13.99,7.51,16.48,7.51s10.5-6.47,16.48-7.51c24.02-4.19,46.43,13.51,44.45,38.27-.28,3.57-4.01,8.84-2.92,11.31,2.23,5.03,11.33,7.4,12.88,17.05,2.06,12.89-4.93,14.66-5.5,20.19s16.06,20.89,3.62,32.68c23.7-3.59,3.92-27.6,4.35-32.63s6.69-7.61,5.26-17.82-12.61-19.95-13.15-22.76c-.45-2.34,1.9-9.16,1.69-13.8-1.29-28.61-26.45-42.59-52.98-38.8-5.31.76-12.53,5.64-15.84,5.37s-9.08-4.59-14.51-5.37c-25.24-3.63-49.72,10.59-52.67,37.01-.7,6.26,2.26,14.5,1.54,17.42-.84,3.38-9.6,8.94-11.23,16.84-2.67,13,5.69,21.3,5.33,23.26-.71,3.89-8.4,7.36-7.97,20.3.28,8.52,5,10.62,5.62,14.27.98,5.78-3.83,12.59.07,22.2,2.31,5.68,15.66,16.73,16.49,4.54Z"/>
  <path d="M201.43,197.32l-.02,7.98c10.48,1.13,24.74-1.41,26-13.98-9.74,1.55-15.55,11.15-25.98,6Z"/>
  <path d="M163.43,135.28c-3.72-.07-8.76.77-8,6.02,16.9,1.81,15.97-4.39,9.61-16.7-.97-1.88-.86-6.55-4.59-5.27-5.81,2,2.84,12.72,2.98,15.95Z"/>
  <path d="M173.71,105.61c-4.94,3.09-1.39,16.92,7.8,10.79,4.87-3.25-.26-15.5-7.8-10.79Z"/>
  <path d="M143.24,117.13c4.17-2.98.43-13.8-6.76-11.81-7.77,2.16-.83,17.23,6.76,11.81Z"/>
  <path d="M153.48,153.37c-2.68,1.88-.43,13.01,4.86,11.9,9.59-2.01,3.17-17.55-4.86-11.9Z"/>
  <path d="M165.43,251.32c-1.24,1.33.93,7.93,2.99,7.95,5.96.06.56-11.76-2.99-7.95Z"/>
  <path d="M163.51,234.64c-1.24,1.33.93,7.93,2.99,7.95,5.96.06.56-11.76-2.99-7.95Z"/>
  <path d="M162.42,218.52c-1.24,1.33.93,7.93,2.99,7.95,5.96.06.56-11.76-2.99-7.95Z"/>
  <path d="M160.5,202.41c-1.24,1.33.93,7.93,2.99,7.95,5.96.06.56-11.76-2.99-7.95Z"/>
  <path d="M147.43,217.32c-3.17,3.17,2.81,9.15,5.98,5.98s-2.81-9.15-5.98-5.98Z"/>
  <path d="M146.31,202.55c-3.17,3.17,2.81,9.15,5.98,5.98s-2.81-9.15-5.98-5.98Z"/>
  <path d="M148.44,234.78c-3.17,3.17,2.81,9.15,5.98,5.98s-2.81-9.15-5.98-5.98Z"/>
  <path d="M148.44,252.24c-3.17,3.17,2.81,9.15,5.98,5.98s-2.81-9.15-5.98-5.98Z"/>
</svg>
