<?xml version="1.0" encoding="UTF-8"?>
<svg id="Layer_1" data-name="Layer 1" xmlns="http://www.w3.org/2000/svg" viewBox="0 0 331.39 393.89">
  <defs>
    <style>
      .cls-1 {
        stroke: #000;
        stroke-miterlimit: 10;
        stroke-width: 2px;
      }
    </style>
  </defs>
  <path d="M108,279.54c-1.17,4.68-9.93,66.06-11.31,72.09-5.35,6.23-25.28,7.73-29.85,4.14-1.62-1.86.37-4.62,2.73-6.24,2.44-1.64,5.81-2.57,9.08-3.29,4.32-1.09,7.97-1.08,10.54-3.14,1.12-4.86,5.99-43.23,7.5-53.34.05-.4.12-.8.16-1.18.16-1.33.4-1.21-1.73-1.35-6.96-.49-18.9-1.18-25.96-1.67-.87-.11-1.26.07-1.28-.58.6-3.52,6.53-35.57,7.53-41.67-.37-1.71-2.48-2.58-4.61-4.37-7.37-5.51-17.58-12.21-18.83-21.72-1.36-15.18,31.7-49.7,47.13-51.93.48-.16,2.02-.03,2.1-.41-.21-.91-3.29-3.28-4.42-4.53-4.57-4.59-8.04-7.06-11.08-11.01-13.77-21.38-10.99-77.11,9.81-85.13,10.57-3.12,15.68,1.06,25.73-7.47,1.8-1.34,3.16-1.41,4.94,0,10.34,10.4,22.73,3.85,31.52,10.82,4.36,3.5,7.23,10.11,9.09,15.4,8.63,24.17,7.2,57.06-10.36,76.75-1.87,1.9-4.85,2.61-5.85,4.59-.97,1.92,1.85,3.76,3.72,4.4,39.28,14.68,53.67,31.03,76.15-5.27,1.94-3.12,3.67-6.12,5.37-9.29.98-1.74,1.73-3.52,1.5-5.55.15-4.18-7.65-21.53-2.3-20.99,2.01.42,6.01,2.45,7.74,2.77.74.16,1.38-.14,1.62-.93,1.2-5.45,1.03-11.94,4.78-16.14,3.2-3.26,5.45,2.37,5.17,5.2-.01,2.17-.57,4.49-1.06,6.72-.44,1.94-.96,4.32-.36,4.56.31.18.92-.29,1.64-1.1,3-3.44,5.74-8.38,9.76-7.12,1.66.52,4.25,2.04,2.98,4-1.49,2.32-5.09,7.64-6.97,10.48-1.33,2-2.47,3.42-.28,2.87,4.02-1.22,12.07-7.01,14.33.3.85,2.9-1.77,4.08-4.43,5.37-3.2,1.52-6.6,2.48-10.2,3.53-5.04,1.58-9.54,2.49-13.13,5.93-12.45,14.12-17.75,39.86-41.72,40.32-13.35.1-25.79-6.52-38.73-9.56-2.39-.54-6.65-1.57-7.91-1.34.67,10.49,11.15,94.71,11.76,101.51.2.67-.96.38-1.53.47-2.37,0-8.83,0-11.03,0-.48.07-1-.07-1.33.22-.74,13.02-1.77,53.11-2.05,59.24.02.22.09.35.28.44.33.15,1.1.12,2.29.15,4.25.13,12.59,1.27,14.87,5.33,1.07,1.89,0,4.7-1.75,5.73-5.42,2.51-13.78-.9-20.15-2.16-2.12-.53-4.07-.8-4.81-1-.38-.11-.53-.25-.57-.48.01-5.53,1.8-68.24,1.68-73.35-10.17-.24-27.68-.16-37.87-.06h-.02ZM123.28,65.93c-4.43.53-8.58,3.37-13.21,3.37-5.83.39-9.12-1.19-13.54,2.58-7.58,6.76-10.42,16.49-12.1,27.2-1.13,7.96-1.16,16.11-.6,23.08,1.89,44.88,62.88,62.05,78.21,14.65,3.73-11.97,4.13-24.61,2.15-38.72-1.96-11.12-4.96-20.13-12.95-26.39-4.38-3.33-7.24-2.07-12.64-2.35-5.28.14-10.02-3.3-15.15-3.43h-.17ZM128.12,206.22c-.59-7.32-1.81-31.89-2.37-34.73-2.58-1.08-13.22-3.04-16.6-3.98-.76-.17-1.03-.22-1.12-.14-.58,5.5-7.3,94.51-7.81,100.42,1.68,6.64,24.19,2.35,29.76,3.52M155.86,270.66c1.11-20.34-1.06-40.78-2.96-61.05-.94-9.51-2.25-21.69-3.84-30.28-.77-3.38-.95-7.25-3.65-9.76-3.23-2.81-9.2.02-12.8,2.53-.52.43-.68.51-.69.91.23,5.68,2.96,71.8,3.79,91.87.08,2.04.16,3.86.24,5.81.08.75-.32.71,2.01.71,4.75.01,10.3,0,14.95,0,1.68,0,2.6.12,2.91-.65l.04-.1ZM83.84,191.04c-4.65-1.37-18,16.59-19.87,19.93-3.86,5.06.17,10.34,4.46,13.82,2.35,1.98,6.03,4.67,8.13,6.28.25.15.39.17.48.05.76-4.54,5.62-30.23,6.83-40.05l-.03-.03Z"/>
  <path d="M197.98,177.3c-5.39,2.2-9.47-15.53-9.32-17.03.21-1.96,5.23-5.17,6.44-8.85,3.79-11.46-2.19-18.76-8.8-27.13,23.11-18-2.07-28.13-4-36.38-.79-3.38,2.51-14.12,1.5-21.44-2.84-20.54-25.1-32.03-44.34-28.68-5.97,1.04-14,7.51-16.48,7.51s-9.63-5.96-14.89-7.11c-22.25-4.87-46.08,8.85-46.96,32.82-.19,5.07,2.94,12.06,2.37,15.07-.61,3.23-11.83,10.44-13.19,18.74-1.53,9.35,7.69,14.82,7.7,19.52,0,4.19-11.06,10.97-10.02,21.76.6,6.21,6.83,10.94,7.59,14.67s-2.35,9.47-1.55,15.38c.74,5.47,4.76,7.41,5.97,12.14-6.77,3.81-12.89-6.77-13.65-12.52s1.94-9.48,1.62-13.4-5.42-7.08-6.08-14.05c-1.25-13.19,8.08-19.31,8.06-23.99-.02-4.16-6.86-9.45-5.87-19.77,1.07-11.18,10.33-13.84,11.62-18.7,1.9-7.17-3.99-15.01,2.24-29.59,9.03-21.14,29.27-27.87,50.87-24.78,5.3.76,11.71,5.27,14.52,5.43,2.62.15,7.65-4.3,12.12-5.15,25.73-4.86,51.75,8.43,55.7,35.48,1.08,7.42-2.23,13.87-.85,18.62,1.29,4.47,10.54,9.34,11.64,18.64,1.14,9.68-5.31,15.18-5.58,20.16-.23,4.1,8.75,12.23,5.22,27.23-.86,3.66-4.63,6.26-5.04,8.69-.63,3.75,3.14,11.71,1.44,16.71Z"/>
  <path d="M181.16,200.93c-1.6,4.35-9.89,7.01-13.31,6.3-.66-.14-1.2-.62-1.46-1.24l-1.03-2.43c-.52-1.23.21-2.63,1.52-2.91l11.82-2.49c1.62-.34,3.03,1.22,2.46,2.77Z"/>
  <path d="M125.98,189.32c3.17,3.17-2.81,9.15-5.98,5.98s2.81-9.15,5.98-5.98Z"/>
  <path d="M127.98,241.32c3.17,3.17-2.81,9.15-5.98,5.98s2.81-9.15,5.98-5.98Z"/>
  <path d="M127.54,225.32c3.17,3.17-2.81,9.15-5.98,5.98s2.81-9.15,5.98-5.98Z"/>
  <path d="M127.11,206.37c3.17,3.17-2.81,9.15-5.98,5.98s2.81-9.15,5.98-5.98Z"/>
  <path class="cls-1" d="M265.54,269.43c.65.76,3.89-3.18,4.66-3.72,3.25-2.28,9.51-3.47,12.61-.51l-2.58,6.51-4.87,4.65c12.1,1.49,16.48,14.37,15.59,25.13-.27,3.26-2.72,9-2.76,11.09-.01.71,2.33,4.17,2.8,5.64,1.25,3.88.86,9.09-.42,12.94-1.6,4.84-8.76,5.14-6.11-.92.69-1.59,2.44-1.86,3.31-3.04,1.8-2.44,1.03-8.13-1.15-10.39l-8.42,8.9c-2.73,1.85-5.75,3.74-9.17,3.83.32,5.15,1.28,10.49-.02,15.58,2.12.56,7.84.37,8.06,3.17l-.51,1.64c-.88,1.32-6.16,1.15-7.78.91-5.65-.83-2.77-3.95-2.63-7.72.07-2.01.23-12.77-.68-13.52-9.19-1.28-14.13-7.2-15.45,6.06-.24,2.45.5,11.89.1,12.76-1.69,3.69-12.52,3.26-11.09-1.19.75-2.02,6.93-2.07,7.38-2.77-.26-5.91.75-11.61,2.39-17.25-7.06-1.04-12.21-8.07-14.5-14.41-4.48.74-8.18,2.04-12.65.25-1.07-.43-8.17-5.83-8.92-6.68-1.56-1.79-2.26-4.74.05-6.23,6.12-.39,4.65,6.59,8.9,9.41,3.43,2.29,7.43,1.94,10.98.04-.12-4.42-.99-8.82-.64-13.31.88-11.36,10.29-25.51,23.16-23.11,2.71.51,4.97,2.24,7.48,3.2.43-5.58-.04-8.82-2.98-13.48-.72-1.14-3.72-3.31-.67-4.36,4.3-1.48,6.99,7.66,6.55,10.9ZM279.4,266.55c-6.25-.97-11.08,3.52-12.71,9.24,5.56-.16,11.05-3.79,12.71-9.24ZM251.56,275.93c-8.98.64-15.7,11.6-16.58,19.87-1.1,10.44,3.41,27.92,16.02,28.77,1.9.13,3.93-.48,6.1-.19,5.85.76,8.62,4.3,15.75,1.21,18.81-8.15,21.39-48.1-1.26-46.32-2.2.17-5.78,1.89-7.5,1.72-3.1-.31-6.49-5.49-12.55-5.05Z"/>
  <path d="M267.67,298.98c5.22-1.52,2.62,9.93-1.28,6.29-1.53-1.49-.6-5.74,1.28-6.29Z"/>
  <path d="M267.05,311.58c1.42.11,2.54,1.42,2.24,2.81s-1.53,2.05-3.43,2.91c-6.26,2.83-15.84,2.07-19.11-4.38-.42-.83-.28-1.85.29-2.58h0c.64-.82,1.73-1.16,2.71-.83,2.5.84,5.1,1.93,7.63,2.22,3.36.38,6.58-.39,9.66-.15Z"/>
  <path d="M251.92,296.74c5.22-1.52,2.62,9.93-1.28,6.29-1.53-1.49-.6-5.74,1.28-6.29Z"/>
  <path d="M136.16,144.04c1.72.14,3.02,1.81,2.59,3.48-.4,1.57-1.85,2.32-4.05,3.32-7.39,3.35-18.69,2.48-22.65-5.05-.55-1.04-.45-2.3.27-3.22h0c.76-.97,2.05-1.38,3.23-.98,2.97,1,6.06,2.29,9.08,2.64,4.01.46,7.86-.48,11.54-.18Z"/>
  <path d="M106.2,112.1c-1.33-4.04-1.31-8.85,2.75-9.87,1.71-.43,3.51.44,4.18,2.07,1.02,2.47.94,6.31-.49,8.65-1.59,2.6-5.49,2.04-6.44-.86Z"/>
  <path d="M147.23,101.89c1.05-.29,2.04-.26,3,.3,4.08,2.05,2.07,16.61-4.19,11.5-2.16-1.77-2.27-10.85,1.19-11.81Z"/>
  <path d="M130.43,127.02c-3.72-.07-8.76.77-8,6.02,16.9,1.81,15.97-4.39,9.61-16.7-.97-1.88-.86-6.55-4.59-5.27-5.81,2,2.84,12.72,2.98,15.95Z"/>
</svg>
