<?xml version="1.0" encoding="UTF-8"?>
<svg id="Layer_1" data-name="Layer 1" xmlns="http://www.w3.org/2000/svg" viewBox="0 0 331.39 393.89">
  <path d="M159.83,178.6l-15.68-17.32c-3.12-6-12.25-23.48-.14-17.49,7.46,38.52,59.63,41.96,72.78,4.77,5.57-15.76,6.58-64.73-14.37-69.53-3.74-.86-7.7,0-11.4-.59-11.36-1.78-17.86-1.92-30.08.27-13,2.34-14.05,14.6-20.11,23.85-8.19.3,2.49-25.87,12.89-29.07,9.42-2.9,19.96,2.23,27.11-8.8,16.55,16.36,29.11-2.08,40.55,25.36s7.78,64.22-15.55,84.53c14.49,4.68,42.9,24.18,42.14,40.99-.73,16.25-23.67,25.53-25.74,32.46-2.77,9.26,5.43,27.85.72,38.71l-15.13,1.88c-1.05,23.92,15.2,36.07,31.92,49.21.48,2.26-9.56,12.05-11.87,13.82-14.96,11.48-14.56-6.35-.09-12.03-7.85-5.89-19.29-15.52-23.67-24.29s-2.58-18.66-7.62-26.79l-38.4.35c-9.59,19.87-10.46,41.47-14.14,62.87-22.4,3.03-46.53-18.05-6.14-11.13.11-17.61,3.93-35.37,11.98-51.03.52-2.03-6.93.2-9.11-2.83-4.42-6.14,10.36-84.55,11.13-98.13-12.48-.21-36.04-1.13-45.91-9.09-13.46-10.85-11.25-41.25-16.52-48.47-.95-1.31-6.72-2.1-9.64-5.37-3.53-3.95-2.75-9.25-7.13-12.86-9.44-7.78-17.91-5.3-26.14-7.67-5.48-1.58-21.07-9.22-20.69-15.38.13-2.13,19.46-35.74,21.02-37.19,2.64-2.44,4.24-2.37,7.57-1.67,1,.21,16.64,9.97,17.45,10.78,21.01,20.99,42.73,28.57,66.27,45.66,5.73,4.16,23.78,16.64,18.88,23.41-20.58,11.28-35.22,2.03-54.55-5.85l-4.44,2.98c-1.06,3.73,7.34,37.61,10.08,41.49s16.47,9.23,20.77,9.23h31ZM53.11,58.86c-2.09.4-18.84,26.78-19.07,29.07-.48,4.84,10.29,6.64,12.81,10.47l20.87-30.83-14.6-8.71ZM70.01,74.71l-12.04,22.69,33.93,16.32,11.09-19.17-32.97-19.83ZM110.8,98.71l-10.98,16.85,34.05,14.19c17.07-17.18-12.6-21.12-23.06-31.04ZM95.83,120.62l-7.99-2.01v2.96s3.02,3.02,3.02,3.02l4.97-3.97ZM173.83,280.6h42l-.08-11.92c-14.09,1.36-14.46-13.68-7.64-22.8,2.47-3.3,7.22-3.73,7.85-8.31l-6.06-51.59-10.97-9.05-17.03,3.74-2.04,19.94M176,183.53c-.12-.9.18-2-.41-2.69-14.58-5.5-14.35,1.46-17.16,13.36-6.4,27.11-8.34,57.47-10.63,85.25l20.05,1.16M173.81,202.61,221.85,234.6c8.23-3.45,14.66-10.72,17.91-18.99.18-6.04-17.46-26.59-21.92-22.99l4.02,41.98Z"/>
  <path d="M119.81,86.6l-6.19-4.97c2.27-27.81,23.03-44.44,50.99-40.8,5.95.77,13.61,5.58,16.22,5.66,3.35.11,9.7-4.57,14.48-5.42,25.12-4.46,52.03,9.74,54.53,36.51.52,5.59-1.65,12.78-1.17,16.1,1.03,7.24,15.47,11.22,10.76,31.5-.82,3.52-4.86,6.76-4.96,8.42-.19,3.18,8.94,10.29,7.43,24.03-.74,6.73-5.03,9.32-5.51,12.24s1.95,8.74,1.56,13.71c-.6,7.63-11.02,19.77-12.12,11.96-.5-3.57,5.43-7.81,6.02-12.12.86-6.19-4.27-10.7-3.72-13.54s6.82-5.77,7.66-12.48c1.77-14.15-9.11-18.29-9.78-22.1-.97-5.55,15.38-11.36,2.68-30.59-1.96-2.96-6.93-5.97-7.87-8.07-1.09-2.45,2.64-7.75,2.93-11.31,2.02-25.35-22.09-42.84-46.05-37.86-5.32,1.1-13.25,7.15-16.9,7.03-2.96-.1-10.27-6.38-16.45-7.44-26.27-4.5-44.55,13.89-44.55,39.51Z"/>
  <path d="M118.81,170.5c-9.17-2.34-8.71-23.79-5.24-28.85.5-.73,1.43-1.06,2.28-.83,7.2,1.94,1.46,10.52,1.83,16.75.27,4.41,2.6,6.9,3.65,10.29.48,1.55-.95,3.05-2.52,2.64Z"/>
  <path d="M139.41,200.58c-2.88,8.27-17.69,3.39-19.5-4.91-.32-1.46,1.09-2.72,2.52-2.29l15.65,4.7c1.06.32,1.69,1.45,1.33,2.49Z"/>
  <path d="M171.53,216.75c3.17,3.17-2.81,9.15-5.98,5.98s2.81-9.15,5.98-5.98Z"/>
  <path d="M172.58,205.76c3.17,3.17-2.81,9.15-5.98,5.98s2.81-9.15,5.98-5.98Z"/>
  <path d="M168.78,238.1c3.17,3.17-2.81,9.15-5.98,5.98s2.81-9.15,5.98-5.98Z"/>
  <path d="M169.82,227.11c3.17,3.17-2.81,9.15-5.98,5.98s2.81-9.15,5.98-5.98Z"/>
  <path d="M165.59,157.45c-1.72.14-3.02,1.81-2.59,3.48.4,1.57,1.85,2.32,4.05,3.32,7.39,3.35,18.69,2.48,22.65-5.05.55-1.04.45-2.3-.27-3.22h0c-.76-.97-2.05-1.38-3.23-.98-2.97,1-6.06,2.29-9.08,2.64-4.01.46-7.86-.48-11.54-.18Z"/>
  <path d="M195.56,125.51c1.33-4.04,1.31-8.85-2.75-9.87-1.71-.43-3.51.44-4.18,2.07-1.02,2.47-.94,6.31.49,8.65,1.59,2.6,5.49,2.04,6.44-.86Z"/>
  <path d="M154.53,115.29c-1.05-.29-2.04-.26-3,.3-4.08,2.05-2.07,16.61,4.19,11.5,2.16-1.77,2.27-10.85-1.19-11.81Z"/>
  <path d="M171.33,140.42c3.72-.07,8.76.77,8,6.02-16.9,1.81-15.97-4.39-9.61-16.7.97-1.88.86-6.55,4.59-5.27,5.81,2-2.84,12.72-2.98,15.95Z"/>
</svg>