<?xml version="1.0" encoding="UTF-8"?>
<svg id="Layer_1" data-name="Layer 1" xmlns="http://www.w3.org/2000/svg" viewBox="0 0 331.39 393.89">
  <defs>
    <style>
      .cls-1 {
        stroke: #000;
        stroke-miterlimit: 10;
      }
    </style>
  </defs>
  <path d="M221.95,199.51c16.14-7.35,27.84,19.17,5.12,9.39-5.71-2.46-15.73,16.25-27.14,16.89-18.8,1.05-29.34-59.68-55.16-53.19-2.05.51-3.43,2.43-3.24,4.53l5.35,60.64c.19,2.2,2.03,3.88,4.23,3.9l10.8.06c2.7.02,4.73-2.44,4.22-5.09l-12.94-66.41c-.03-1.74,23,22.14,23.78,22.47,4.18,1.8-2.13,34.85-.39,46.06.19,1.25,1.2,2.21,2.46,2.39,15.25,2.15,109.43-.91,111.23,1.44,8.03,10.94,1.98,17.94-9.34,19.02-2.17.21-3.8,2.07-3.8,4.24v86.23c0,.42-.19.81-.51,1.08-.34.36-2.7,2.3-3.2,2.31-5.08,0-16.46,2.47-19.8-2.29-.33-.47-.48-1.04-.48-1.61,0-6.56,0-54.45,0-54.45,0-.77-.62-1.39-1.39-1.39h-56.51c-2.29,0-4.18,1.81-4.27,4.1l-1.7,42.6c-.03.7.48,1.3,1.16,1.42,38.26,5.97,9.38,18.21-9.5,7.66-.95-.53-1.53-1.54-1.5-2.63.29-9.09,1.67-51.74,1.67-51.74.03-.78-.6-1.43-1.39-1.43,0,0-14.97.02-14.97.02-.84,0-1.49.74-1.37,1.58.26,10.25,13.13,67.91-1.2,52.05-.42-.47-.69-1.05-.76-1.67-.69-6.95-4.07-50.34-4.16-50.71-.06-.72-.66-1.27-1.38-1.27-.73.53-23.94-1.35-22.85,1.27,0,0-3.75,45.57-3.75,45.57-.05.65.35,1.24.97,1.44l14.97,4.7c1.79.56,3,2.23,2.99,4.1h0c-.01,2.24-1.75,4.14-3.99,4.24-7.87.35-24.05-4.1-24.89-6.59-1.88-5.53,7.49-46.41,4.34-53.92.31-1.63-16.48-.49-17.22-.81-.74,0-1.34.58-1.38,1.31l-2.82,51.75c.04,1.8-4.17,1.83-5.2,2.42-.92.25-1.82-.48-1.75-1.43l3.53-49.46c.18-2.47-1.78-4.58-4.26-4.58h-6.03c-.77,0-1.38.63-1.38,1.39.1.52.05,46.77-.07,54.72-.02,1.02-.56,1.96-1.45,2.46-5.4,3.07-22.89,3.07-24.08-4.14,0,0-.39-88.87-.39-88.87,0-.81-.7-1.44-1.5-1.37-8.75.79-14.47-3.53-12.59-13.16,1.29-6.62,11.75-6.16,21.76-5.32,4.14.35,6.17-4.73,3.1-7.52-.34-.31-.65-.65-.92-1.02-8-11.01,16.49-52,26.05-60.25,2.67-3.09,11.91-3.48,9.83-8.45-.22-.52-.62-.94-1.09-1.24-22.7-14.53-22.11-54.54-14.1-77.67,8.85-25.54,21.73-14.95,37.57-23.25.5-.26.93-.66,1.19-1.16.92-1.81.85-4.68,3.87-2.82,12.94,14.71,25.85-.33,37.69,19.81,15.45,27.52,11.42,66.82-10.24,89.71-.37.62-.17,1.42.42,1.83,16.05,11.36,22,32.38,36.27,46.16M133.51,68c-.52.02-1.03.18-1.47.46-12.82,8-23.65-2.98-31.79,13.42-13.84,25.46-9.77,78.47,24.33,85.43,47.85,9.77,60.4-49.46,43.57-83.57-7.36-14.92-11.59-10.01-23.92-12.07-3.9-.65-6.79-3.81-10.72-3.68ZM135.5,178.28c-.2-2.2-2.04-3.81-4.25-3.87-6.21-.17-13.44-4.85-16.95-4.72-1.09.04-1.08,3.12-2.71,3.92-3.12,1.53-5.84,1.35-9.31,3.93-.14.1-.29.19-.45.27-11.56,5.49-25.03,59.31-26.92,47.98,6.24-25.67,12.78-42.77,37.64-55.72.86-.34,1.8.28,1.86,1.21l3.78,57.49c4.79.3-10.23-1.68-5.59-2.66,9.23-1.94,18.76,4.67,18.7,14.18-.23,2.57,7.08,1.01,8.31,1.46.82,0,1.47-.69,1.39-1.51l-5.49-61.95ZM121.62,241.65c5.6-2.92-7.62-12.09-12.48-2.86-2.2,4.48,8.26,2.97,12.48,2.86ZM285.74,247.76c-1.41,2.32-234.91-4.5-232.59,2.4-.27.58,1.15,1.78,2,2.57.49.46,1.13.72,1.81.76,18.04.98,228.05-.14,228.79.27,2.1.06,1.2-3.43,1.39-4.62,0-.77-.62-1.39-1.39-1.39ZM269.74,261.76c-1.49,1.43-200.84-2.68-200.61,1.38,0,0,0,83.23,0,83.23-.64,2.6,9.62.95,10.61,1.39.77,0,1.39-.62,1.39-1.39,0,0,0-55.23,0-55.23-.32-3.77,158.16-.4,173.78-1.24.58-.03,1.17-.19,1.64-.53.95-.69,2.5-.81,2.58.85,0,0,0,56.15,0,56.15,0,.77.62,1.39,1.39,1.39h6.34c2.36,0,4.27-1.91,4.27-4.27v-80.34c0-.77-.62-1.39-1.39-1.39Z"/>
  <path d="M193.14,197.75c-.51-8.9,8.62-10.17,9.9-19.13,1.2-8.41-4-13.91-3.72-15.58.42-2.54,6.27-4.96,7.39-8.67,4.67-15.44-8.35-21.04-7.7-27.5.86-8.61,15.42-8.68,2.98-26.97-2.23-3.28-8.97-7.88-9.79-10.05-1.04-2.73,3.42-12.6,2.84-18.85-2.16-23.18-25.15-34.47-46.43-30.76-6.21,1.08-12.59,6.86-14.84,7.22-1.52.24-10.93-6.31-16.12-7.22-22.45-3.91-44.37,8.89-46.44,32.77-.54,6.21,3.09,12.18,1.61,17.3-.95,3.28-7.89,7.84-9.83,12.29-6.98,16.03,5.75,21.39,5.79,24.14.05,3.71-13.96,11.22-8.75,27.14,1.28,3.89,6.51,7.13,6.87,9.16.44,2.5-5.48,7.66-5.18,13.41.46,8.85,10.09,10.71,9.4,19.3-8.77-.17-15.86-11.23-16.14-19.03-.2-5.5,3.89-10.51,3.28-13.12-1.08-4.59-6.29-8.29-6.39-17.18s7.25-16.52,7.24-19.63c-.02-3.54-6.25-9.77-5.53-17.57.96-10.29,12.51-19.63,13.09-22.68,1.68-8.73-4.47-14.85,2.71-29.52,10.9-22.27,32.64-27.03,55.41-21.93,3.11.7,6.09,4.48,9.01,4.3,4.45-.27,14.3-7.6,24.13-7.41,19.53.39,39.41,15.48,42.72,35.25,1.02,6.09-1.16,18.69-.42,20.63s5.91,5.17,7.78,8.03c12.53,19.13-1.68,25.83-.46,32.52.82,4.49,7.87,10.67,7.45,20.2-.3,6.8-6.5,12.73-6.94,16.09-1.62,12.42,6.22,28.59-14.91,33.05Z"/>
  <path d="M137.12,225.77c3.17,3.17-2.81,9.15-5.98,5.98s2.81-9.15,5.98-5.98Z"/>
  <path d="M135.2,210.62c3.17,3.17-2.81,9.15-5.98,5.98s2.81-9.15,5.98-5.98Z"/>
  <path d="M134.33,195.46c3.17,3.17-2.81,9.15-5.98,5.98s2.81-9.15,5.98-5.98Z"/>
  <path d="M264.51,226.92c-2.23-.88-4.89-2.57-5.56-4.95-.28-.99.67-1.93,1.64-1.59,2.54.87,3.03,3.55,7.08,3.98,5.03.53,6.72-.92,10.04-3.56.52-.41,1.26-.37,1.73.09h0c.45.45.5,1.15.14,1.68-3.39,4.99-9.26,6.64-15.07,4.34"/>
  <path d="M285.07,203.79c2,1.44-2.62,9.15-8.74,6.01-1.68-.86-4.13-3.73-2.84-5.65,1.4-1.88,3.19,2.05,4.05,2.62,3.99,2.62,5.38-4.52,7.53-2.98"/>
  <path d="M252.48,206.79c1.28-.28,2.08,2.32,3.1,2.97,3.21,2.07,4.47-1.11,6.64-2.97,3.43.83.27,5.21-1.79,6.13-7,3.13-11.11-5.45-7.95-6.13Z"/>
  <path class="cls-1" d="M285.3,171.71c1.21,4.68-1.5,10.34-5.55,12.97-2.78,1.8-5.17,1.99-8.16,2.82-.84.24-1.39-.37-1.15,1.06,10.93-4.07,22.96.6,26.52,12.06,4.76,15.31-4.14,43.44-23.79,41.22-1.69-.19-3.51-1.37-4.89-1.34s-3.52,1.11-5.12,1.29c-25.38,2.87-34.4-46.41-10.63-53.95,5.55-1.76,9.4-1.11,14.91.22-.4-2.07-.86-4.12-1.61-6.1-.47-1.24-2.31-3.92-2.38-4.63-.18-1.77,1.49-2.44,2.43-.9l3.05,5.16c1.62-7.08,9.43-10.82,16.36-9.89ZM282.88,174.13c-6.56.33-10.91,4.15-12.45,10.45,6.12.42,12.16-4.09,12.45-10.45ZM255.88,189.69c-23.54,3.22-15.96,50.9,5.83,49.66,2.27-.13,4.98-1.58,6.97-1.52,1.67.05,3.36,1.25,5.04,1.47,22.73,3,32.93-49.81,4.53-49.56-3.24.03-7.1,1.9-9.53,1.82-1.97-.06-4.27-1.68-6.55-1.96-1.82-.23-4.46-.18-6.29.07Z"/>
  <path d="M144.88,146.62c1.72.14,3.02,1.81,2.59,3.48-.4,1.57-1.85,2.32-4.05,3.32-7.39,3.35-18.69,2.48-22.65-5.05-.55-1.04-.45-2.3.27-3.22h0c.76-.97,2.05-1.38,3.23-.98,2.97,1,6.06,2.29,9.08,2.64,4.01.46,7.86-.48,11.54-.18Z"/>
  <path d="M114.91,114.68c-1.33-4.04-1.31-8.85,2.75-9.87,1.71-.43,3.51.44,4.18,2.07,1.02,2.47.94,6.31-.49,8.65-1.59,2.6-5.49,2.04-6.44-.86Z"/>
  <path d="M155.94,104.46c1.05-.29,2.04-.26,3,.3,4.08,2.05,2.07,16.61-4.19,11.5-2.16-1.77-2.27-10.85,1.19-11.81Z"/>
  <path d="M139.14,129.59c-3.72-.07-8.76.77-8,6.02,16.9,1.81,15.97-4.39,9.61-16.7-.97-1.88-.86-6.55-4.59-5.27-5.81,2,2.84,12.72,2.98,15.95Z"/>
</svg>
