<?xml version="1.0" encoding="UTF-8"?>
<svg id="Layer_1" data-name="Layer 1" xmlns="http://www.w3.org/2000/svg" viewBox="0 0 331.39 393.89">
  <path d="M189.48,176.53c.74,1.27,3.21,1.7,4.64,2.34,5.47,2,8.94,5.8,11.7,10.63.05.08.09.16.13.25,6.84,14.59,25.29,52.98-1.02,52.43-1.44.25-2.01.85-2,2.22.35,8.16,2.34,35.46,2.72,45.1.05,1.38-.8,2.65-2.12,3.03-2.75.79-7.31.55-9.16,1.41-3.78.91-2.89,4.16-2.49,7,1.94,13.21,1.32,27.63-.3,40.97-2.11,10.12,13.48,7.03,17.14,13.42,1.39,2.85,2.7,8.17-1.83,6.87-4.72-.65-14.72-2.09-19.45-2.77-.35-.08-.75-.12-1.16-.17-1.5-.18-2.65-1.43-2.69-2.94-.37-12.31-.56-49.23-.75-58.6.09-2.48-.82-3.33-3.6-3.99-5.8-1.4-17.96-.14-24.57.69-1.88.27-5.82.57-6.19,1.8-1.38,7.89-3.64,37.74-5.36,53.55-.59,2.89.08,5.46-1.06,7.62-.29.56-.79.98-1.36,1.24-5.81,2.63-13.07,4.11-19.29,4.31-6.61.03-12.17-3.8-3.17-8.51,4.1-2.49,8.6-3.32,12.2-4.61,1-.36,1.73-1.21,1.95-2.25,2.5-11.72,4.55-42.43,5.93-51.94-.21-1.89-1.51-1.46-3.99-1.91-3.75-.44-9.48-.94-13.04-1.41-2.21-.32-2.65-.72-2.54-2.14.69-6.39,4.45-37.38,5.38-45.67.42-2.91-2.44-2.28-4.73-2.74-1.53-.24-3.01-.78-4.15-1.69-10.43-8.58-3.25-45.34,5.14-54.95,7.21-8.6,21.5-5.15,12.68-13.24-.05-.05-.11-.11-.16-.16-22.54-23.64-25.43-64.7-6.24-91.64.09-.13.2-.26.31-.38,8.76-9.4,19.62-4.69,30.83-11.3,1.69-.95,3.64-1.82,5.52-1.79,2.28,0,4.38,1.3,6.32,2.45,7.38,4.36,15.12,1.91,22.87,6.93.12.08.24.17.35.26,26.54,21.8,21.96,73.07-1,96.32-.96.93-2.99,2.77-2.42,3.88l.04.08ZM162.06,76.5c-3.5.69-6.88,2.69-10.58,2.77-5.58.35-10.66-.45-15.42,2.52-13.78,7.7-16.99,40.11-14.78,54.37,6,45.56,64.65,58.51,79.85,9.54,4.94-16.62,3.63-55.1-12.9-64.43-4.7-2.6-10.14-1.45-15.44-2.33-3.75-.49-7.3-2.84-10.57-2.46l-.16.02ZM161.34,181.91c-1.73-.53-3.93-.62-5.79-1.01-3.4-.57-6.66-1.84-8.8-1.02-1.78.66-2.9,2.28-4.31,3.49-2.31,2.23-5.61,2.34-8.58,3.12-3.36.75-6.91,2.92-8.78,5.48-1.4,1.82-2.11,3.86-2.76,6.07-2.02,6.78-4.27,17.97-5.24,24.55-.36,3.03-1.21,6.9,1.14,9.26,1.96,1.79,6.26,1.76,9.15,1.93,2.47.13,3.02-.65,2.72-2.6-.51-3.85-1.82-12.91-2.65-18.87-.06-.46-.12-.89-.18-1.3-.43-2.95,3.24-4.76,5.24-2.55.01.01.02.03.04.04,1.45,1.67,1.58,4.12,2.89,5.26,1.42,1.32,3.73.64,5.56.5,5.53-.6,10.52,1.45,15.77,2.91,1.79.44,3.92,1.37,5.85,1.39,1.68.02,3.05-1.38,3.03-3.06,0-.58-.06-1.24-.13-1.96-.19-2.12-.36-4.02-.58-6.47-.56-6.18-1.24-13.79-1.77-19.69-.24-1.8-.02-4.99-1.71-5.44l-.1-.04ZM210,232.57c.76-1.05.3-3.35.11-4.86-3.1-23.36-11.64-49.71-37.71-46.88-2.96.26-4.23,1.35-3.97,3.99.58,7.38,1.12,23.69,1.95,29.75.75,2.46,5.94.28,8.2.23,2.93-.44,6.05-.23,6.68,2.96.34,1.64-.07,3.76.8,5.09,2.64,3.64,8.19,1.83,7.69-2.9.01-2.8-1.3-5.39-2.01-8.11-.19-.85-.41-1.87.24-2.47.86-.81,3.66-.25,5.73,1.03,2.98,1.64,3.28,4.66,3.25,8.18,0,2.16-.19,4.32-.77,6.41-.32,1.25-.87,2.44-1.28,3.48-.7,1.75.3,3.75,2.14,4.13,1.02.21,2.12.27,3.06.47.05.01.1.02.16.03,1.82.23,4.58.8,5.66-.43l.07-.09ZM154.53,224.17c-.55-.63-1.59-1-2.48-1.22-5.55-1.08-11.99-3.7-16.43.24-1.62,1.76-.24,4.81,1.65,5.8,1.32.75,3.61-.31,5.59-.41,3.08-.33,7.25.07,9.88-.86,1.75-.6,2.83-2.25,1.89-3.45l-.09-.11ZM166.59,249.66c0-4.35.05-9.41,0-13.83-.03-.85-.13-1.72-.4-2.44-3.07-6.2-21.61,4.91-27,6.04-2.01.71-4.66.91-5.13,3.27-1.01,5.32-4.21,23.69-6.14,34.46-.64,3.71-1.19,6.45-1.31,7.6-.16,1.3,1.13.99,2.05,1.07,6.5,0,31.29.03,36.35-.02,2.32.04,1.4-2.19,1.6-4.43,0-8.76,0-21.04,0-29.71M172.98,233.86c-.29.1-.36.35-.4.66.08,11.12-.29,38.79.04,48.35.06,1.68,1.46,2.99,3.14,2.94.44-.01.93-.02,1.46.02,4.9,0,13.74,0,18.98,0,3.27-.14,4.36.46,4.33-1.37-.46-5.46-3.38-37.17-3.94-43.17-.12-.88-.26-1.35-1.15-1.72-4.74-1.48-12.07-3.18-17.28-4.6-2.86-.73-4.55-1.26-5.14-1.11h-.05Z"/>
  <path d="M220.62,205.65c.4-7.56,10.63-9.92,11.98-17.06,1.55-8.19-4.19-15.07-3.7-17.64.54-2.83,6.17-4.98,7.3-8.69,4.61-15.19-7.67-20.95-7.67-25.6,0-7.15,14.93-7.65,3.36-27.28-2.17-3.69-8.35-8.75-9-11.16-1.03-3.81,2.17-11.5,1.78-17.51-1.95-30.67-40.34-42.49-62.77-23.26-21.1-20.87-56.45-6.68-60.83,21.7-1.15,7.46,2.35,14.85,1.24,19.04-1.02,3.87-9.83,10.44-11.29,16.89-2.96,13.16,5.61,16.81,5.62,21.61,0,3.57-9.6,10.79-10.01,18.12-.42,7.58,8.01,13.79,7.96,17.84-.03,2.53-3.33,5.02-3.94,8.12-1.18,6.07,1.18,13.93,6.05,17.77,3.2,2.53,11.6,2.26,9.88,6.08-4.57,10.15-21.63-6.05-22.14-17.93-.62-14.5,1.48-8.77-2.95-22.93-5.23-16.71,6.15-20.33,6.76-27.42.26-3.03-6.15-9.24-5.57-17.45.86-12.21,12.72-18.65,13.45-22.47.53-2.76-2.07-11.86-1.53-17.78,2.33-25.88,27.96-40.45,52.49-36.47,5.69.92,12.62,5.69,16.33,5.51,3.94-.19,9.62-4.66,14.66-5.55,21.93-3.89,48.73,9.54,52.4,32.64.96,6.05-1.63,20.73-.78,22.99,1.41,3.74,10.61,8.38,12.46,17.36,2.55,12.39-4.82,16.37-4.82,21.54,0,3.83,7.41,12.46,7.35,20.03s-6.73,12.24-7.17,15.91c-.38,3.21,2.17,8.13,2.06,12.08-.29,9.91-7.75,22.39-18.95,20.96Z"/>
  <path d="M173.9,154.63c1.72.14,3.02,1.81,2.59,3.48-.4,1.57-1.85,2.32-4.05,3.32-7.39,3.35-18.69,2.48-22.65-5.05-.55-1.04-.45-2.3.27-3.22h0c.76-.97,2.05-1.38,3.23-.98,2.97,1,6.06,2.29,9.08,2.64,4.01.46,7.86-.48,11.54-.18Z"/>
  <path d="M143.93,122.7c-1.33-4.04-1.31-8.85,2.75-9.87,1.71-.43,3.51.44,4.18,2.07,1.02,2.47.94,6.31-.49,8.65-1.59,2.6-5.49,2.04-6.44-.86Z"/>
  <path d="M184.96,112.48c1.05-.29,2.04-.26,3,.3,4.08,2.05,2.07,16.61-4.19,11.5-2.16-1.77-2.27-10.85,1.19-11.81Z"/>
  <path d="M168.16,137.61c-3.72-.07-8.76.77-8,6.02,16.9,1.81,15.97-4.39,9.61-16.7-.97-1.88-.86-6.55-4.59-5.27-5.81,2,2.84,12.72,2.98,15.95Z"/>
  <path d="M163.07,207.46c3.17,3.17-2.81,9.15-5.98,5.98s2.81-9.15,5.98-5.98Z"/>
  <path d="M164.09,232.77c3.17,3.17-2.81,9.15-5.98,5.98s2.81-9.15,5.98-5.98Z"/>
  <path d="M164.09,245.17c3.17,3.17-2.81,9.15-5.98,5.98s2.81-9.15,5.98-5.98Z"/>
</svg>
