<?xml version="1.0" encoding="UTF-8"?>
<svg id="Layer_1" data-name="Layer 1" xmlns="http://www.w3.org/2000/svg" viewBox="0 0 331.39 393.89">
  <path d="M320.22,81.22v146c15.78-5.34,17.07,20,9,20h-171v-6h168v-8h-136l32.15-24.95c-1.14-9.72,6.75-8.31,9.38-14.54,2.23-5.28-.24-12.41,1.47-16.33,5.03-11.48,25.18-25.41,29.01-39.16-2.06-2.66-6.82-.67-9.15.85-7.15,4.64-18.56,26.25-25.82,32.27-1.86,1.54-5.51.63-8.89,2.85-3.76,2.47-22.26,24.31-26.16,20.99,4.92-5.92-.21-14.09.55-18.7.63-3.84,7.09-9.86,7.08-18.28-.01-7.39-6.93-16.74-6.9-20,.05-5.78,4.93-12.76,3.14-23.89-1.78-11.08-14.24-19.26-9.87-33.12h134Z"/>
  <path d="M96.12,297.04l-3.64,66.06c-.04.7-.45,1.33-1.09,1.63-4.83,2.3-23.42,4.69-26.94-.18-.16-.22-.26-.5-.28-.77-.6-6.29,14-7.89,20.29-8.49.96-.09,1.69-.87,1.73-1.83l1.94-44.21c.05-1.09-.83-2.01-1.92-2.01l-21.73-.02c-1.19,0-2.09-1.07-1.9-2.24l7.46-45.04c.13-.79-.24-1.57-.93-1.98-20.19-11.95-23.88-20.77-11.29-42.13,6.04-10.25,19.09-17.29,15.86-30.64-.26-1.09.41-2.19,1.52-2.39l4.51-.8c1.64-.29,2.14-2.36.84-3.41-23.8-19.21-27.68-68.28-11.22-91.24,10.7-14.92,16.84-8.49,29.46-12.54,3.21-1.03,5.2-6.15,8.14-5.46,1.57.37,4.6,4.63,8.12,6.03,9.16,3.64,17.33-1.01,25.18,7.38,18.59,19.85,19.05,74.51-4.05,93.96-.95.8-.92,2.25.07,3.01,10.96,8.44,20.21,18.77,30.02,28.43,2.31,2.27,4.39,7.15,5.95,8.15,8.08,5.17,29.62-16.8,35.96-20.13,3.28-1.72,3.78-.49,5.63,1.62.3.35.5.8.47,1.26-.56,7.95-33.07,27.99-39.07,28.01-6.65.03-21.98-16.86-31.01-24.75-1.36-1.19-3.45,0-3.16,1.77l16.57,99.8c.04.27.05.55-.04.8-1.39,3.91-12.27,2.44-17.53,2.41-1.03,0-1.88.82-1.92,1.85l-1.82,44.44c-.04,1,.7,1.87,1.69,1.99,37.21,4.35,16.15,17.92-8.57,8.32-.73-.29-1.21-1.01-1.21-1.79v-64.77c0-1.06-.86-1.93-1.93-1.93h-28.25c-1.02,0-1.87.8-1.92,1.82ZM105.52,79.72c-2.39.26-5.08,2.93-8.41,3.4-16.2,2.33-20.37-2.26-26.99,16.99-6.73,19.56-6.57,48.54,7.05,65.14,21.6,26.33,59.77,16.08,68.16-15.93,3.99-15.21,2.31-61.38-16.54-65.69-2.59-.59-22.09-4.05-23.27-3.92ZM136.25,285.32c.36-34.12-1.01-68.84-8.55-102.07-.25-1.09-1.38-1.74-2.45-1.41l-9.63,2.95c-.84.26-1.39,1.04-1.36,1.92l3.87,98.67c.04,1.03.89,1.85,1.92,1.85h14.26c1.06,0,1.92-.85,1.93-1.91ZM110.19,204.33l-.06-15.46c0-.91-.65-1.69-1.54-1.88l-15.99-3.29c-1.21-.25-2.34.69-2.31,1.92l1.89,99.71c.02,1.05.88,1.89,1.92,1.89h16.22c1.06,0,1.92-.86,1.93-1.92l.11-20.2M74.48,245.04l4.83-38.71c.24-1.95-2.24-2.97-3.43-1.41-10.97,14.24-26.7,35-3.84,41.74,1.13.33,2.29-.45,2.44-1.62Z"/>
  <path d="M59.6,198.58c2.42-2,4.06-8.44,8.6-9.36,1.56,19.96-22.41,26.17-35.07,12.09-9.47-10.52-2.52-17.45-3.49-26.85-.42-4.05-5.09-7.97-5.54-14.27-.85-11.68,6.76-14.91,7.71-20.32.69-3.93-6.55-9.46-5.19-19.12,1.45-10.37,12.59-19.92,13.15-22.76.64-3.32-2.26-11.91-1.05-19.31,3.25-19.85,22.8-35.27,42.52-35.05,7.99.09,22.24,7.45,25.67,7.14,2.96-.26,6.88-4.1,10.84-5.04,25.1-5.91,53.67,6.71,56.48,34.46.51,5.04-1.61,17.24-.9,19.12,1.65,4.37,11.21,8.42,12.79,19.03,2.01,13.48-4.82,15.09-5.64,20.23-.38,2.4,11.23,11.04,7.34,27.23-.97,4.03-5.24,6.74-5.57,10.47-.57,6.51,4.97,10.74-.25,19.72-1.3,2.24-10.86,11.98-13.73,6.21,16.25-9.27,4.98-20.37,6.42-27.75.87-4.45,8.56-5.92,7.66-18.22-.72-9.85-9.37-13.15-9.93-16.31-.81-4.6,13.38-11.4,4.63-26.56-2.33-4.04-9.57-7.95-10.54-11.61-1.06-4,2.37-12.39,1.56-19.36-2.7-23.3-24.64-34.5-46.36-30.71-5.45.95-14.21,7.38-16.16,7.2-2.86-.27-8.28-5.66-13.18-6.82-22.33-5.29-46.88,7.89-48.01,32.42-.25,5.45,3.85,14.11,2.81,16.82-1.45,3.76-11.34,9-12.84,17.01-2.36,12.61,5.07,14.98,5.58,20.22s-13.02,12.17-8.18,26.12c1.19,3.42,5.71,7.63,6.11,9.92.46,2.68-3.09,6.28-3.59,9.81-2.1,14.9,14.23,23.39,25.37,14.19Z"/>
  <path d="M110.21,239.23c3.17,3.17-2.81,9.15-5.98,5.98s2.81-9.15,5.98-5.98Z"/>
  <path d="M110.56,250.14c3.17,3.17-2.81,9.15-5.98,5.98s2.81-9.15,5.98-5.98Z"/>
  <path d="M109.4,228.93c3.17,3.17-2.81,9.15-5.98,5.98s2.81-9.15,5.98-5.98Z"/>
  <path d="M109.4,217.74c3.17,3.17-2.81,9.15-5.98,5.98s2.81-9.15,5.98-5.98Z"/>
  <path d="M119.63,157.29c1.72.14,3.02,1.81,2.59,3.48-.4,1.57-1.85,2.32-4.05,3.32-7.39,3.35-18.69,2.48-22.65-5.05-.55-1.04-.45-2.3.27-3.22h0c.76-.97,2.05-1.38,3.23-.98,2.97,1,6.06,2.29,9.08,2.64,4.01.46,7.86-.48,11.54-.18Z"/>
  <path d="M89.66,125.36c-1.33-4.04-1.31-8.85,2.75-9.87,1.71-.43,3.51.44,4.18,2.07,1.02,2.47.94,6.31-.49,8.65-1.59,2.6-5.49,2.04-6.44-.86Z"/>
  <path d="M130.69,115.14c1.05-.29,2.04-.26,3,.3,4.08,2.05,2.07,16.61-4.19,11.5-2.16-1.77-2.27-10.85,1.19-11.81Z"/>
  <path d="M113.89,140.27c-3.72-.07-8.76.77-8,6.02,16.9,1.81,15.97-4.39,9.61-16.7-.97-1.88-.86-6.55-4.59-5.27-5.81,2,2.84,12.72,2.98,15.95Z"/>
</svg>
