<?xml version="1.0" encoding="UTF-8"?>
<svg id="Layer_1" data-name="Layer 1" xmlns="http://www.w3.org/2000/svg" viewBox="0 0 331.39 393.89">
  <path d="M218.88,184.35c-5.39,2.2-9.47-15.53-9.32-17.03.21-1.96,5.23-5.17,6.44-8.85,3.79-11.46-2.19-18.76-8.8-27.13,23.11-18-2.07-28.13-4-36.38-.79-3.38,2.51-14.12,1.5-21.44-2.84-20.54-25.1-32.03-44.34-28.68-5.97,1.04-14,7.51-16.48,7.51s-9.63-5.96-14.89-7.11c-22.25-4.87-46.08,8.85-46.96,32.82-.19,5.07,2.94,12.06,2.37,15.07-.61,3.23-11.83,10.44-13.19,18.74-1.53,9.35,7.69,14.82,7.7,19.52,0,4.19-11.06,10.97-10.02,21.76.6,6.21,6.83,10.94,7.59,14.67s-2.35,9.47-1.55,15.38c.74,5.47,4.76,7.41,5.97,12.14-6.77,3.81-12.89-6.77-13.65-12.52s1.94-9.48,1.62-13.4-5.42-7.08-6.08-14.05c-1.25-13.19,8.08-19.31,8.06-23.99-.02-4.16-6.86-9.45-5.87-19.77,1.07-11.18,10.33-13.84,11.62-18.7,1.9-7.17-3.99-15.01,2.24-29.59,9.03-21.14,29.27-27.87,50.87-24.78,5.3.76,11.71,5.27,14.52,5.43,2.62.15,7.65-4.3,12.12-5.15,25.73-4.86,51.75,8.43,55.7,35.48,1.08,7.42-2.23,13.87-.85,18.62,1.29,4.47,10.54,9.34,11.64,18.64,1.14,9.68-5.31,15.18-5.58,20.16-.23,4.1,8.75,12.23,5.22,27.23-.86,3.66-4.63,6.26-5.04,8.69-.63,3.75,3.14,11.71,1.44,16.71Z"/>
  <path d="M202.06,207.98c-1.6,4.35-9.89,7.01-13.31,6.3-.66-.14-1.2-.62-1.46-1.24l-1.03-2.43c-.52-1.23.21-2.63,1.52-2.91l11.82-2.49c1.62-.34,3.03,1.22,2.46,2.77Z"/>
  <path d="M146.88,196.37c3.17,3.17-2.81,9.15-5.98,5.98s2.81-9.15,5.98-5.98Z"/>
  <path d="M148.88,248.37c3.17,3.17-2.81,9.15-5.98,5.98s2.81-9.15,5.98-5.98Z"/>
  <path d="M148.43,232.37c3.17,3.17-2.81,9.15-5.98,5.98s2.81-9.15,5.98-5.98Z"/>
  <path d="M148.01,213.42c3.17,3.17-2.81,9.15-5.98,5.98s2.81-9.15,5.98-5.98Z"/>
  <path d="M157.06,151.09c1.72.14,3.02,1.81,2.59,3.48-.4,1.57-1.85,2.32-4.05,3.32-7.39,3.35-18.69,2.48-22.65-5.05-.55-1.04-.45-2.3.27-3.22h0c.76-.97,2.05-1.38,3.23-.98,2.97,1,6.06,2.29,9.08,2.64,4.01.46,7.86-.48,11.54-.18Z"/>
  <path d="M127.09,119.15c-1.33-4.04-1.31-8.85,2.75-9.87,1.71-.43,3.51.44,4.18,2.07,1.02,2.47.94,6.31-.49,8.65-1.59,2.6-5.49,2.04-6.44-.86Z"/>
  <path d="M168.13,108.94c1.05-.29,2.04-.26,3,.3,4.08,2.05,2.07,16.61-4.19,11.5-2.16-1.77-2.27-10.85,1.19-11.81Z"/>
  <path d="M151.32,134.06c-3.72-.07-8.76.77-8,6.02,16.9,1.81,15.97-4.39,9.61-16.7-.97-1.88-.86-6.55-4.59-5.27-5.81,2,2.84,12.72,2.98,15.95Z"/>
  <path d="M250.87,50.54c28.76-4.29,41.41,29.73,17.95,45.92-8.52,5.88-18.45,4.68-17.15,18.81-7.28,3.63-7.3-2.58-6.31-8.32,2.07-12.04,15.75-11.84,23.26-19.69,12.74-13.3,1.42-32.87-16.78-29.76-15.27,2.61-16.21,25.32-5.3,23.76,5-.71,4.17-8.8,8.57-7.63,8.11,2.15-.83,14.12-8.53,14.66-20.27,1.41-19.24-34.25,4.27-37.76Z"/>
  <path d="M245.75,124.43c7.47-1.39,7.24,11.03-.92,8.6-4.59-1.37-2.54-7.96.92-8.6Z"/>
  <g>
    <path d="M227.74,199.76c-13.35.1-27.75-4.85-40.7-7.88-2.39-.54-6.65-1.57-7.91-1.34.67,10.49,11.15,94.71,11.76,101.51.2.67-.96.38-1.53.47-2.37,0-8.83,0-11.03,0-.48.07-1-.07-1.33.22-.74,13.02-1.77,53.11-2.05,59.24.02.22.09.35.28.44.33.15,1.1.12,2.29.15,4.25.13,12.59,1.27,14.87,5.33,1.07,1.89,0,4.7-1.75,5.73-5.42,2.51-13.78-.9-20.15-2.16-2.12-.53-4.07-.8-4.81-1-.38-.11-.53-.25-.57-.48.01-5.53,1.8-68.24,1.68-73.35-10.17-.24-27.68-.16-37.87-.06h-.02c-1.17,4.69-9.93,66.07-11.31,72.1-5.35,6.23-25.28,7.73-29.85,4.14-1.62-1.86.37-4.62,2.73-6.24,2.44-1.64,5.81-2.57,9.08-3.29,4.32-1.09,7.97-1.08,10.54-3.14,1.12-4.86,5.99-43.23,7.5-53.34.05-.4.12-.8.16-1.18.16-1.33.4-1.21-1.73-1.35-6.96-.49-18.9-1.18-25.96-1.67-.87-.11-1.26.07-1.28-.58.6-3.52,6.53-35.57,7.53-41.67-.37-1.71-2.48-2.58-4.61-4.37-7.37-5.51-17.58-12.21-18.83-21.72-1.36-15.18,31.7-49.7,47.13-51.93.48-.16,2.02-.03,2.1-.41-.21-.91-3.29-3.28-4.42-4.53-4.57-4.59-8.04-7.06-11.08-11.01-13.77-21.38-10.99-77.11,9.81-85.13,10.57-3.12,15.68,1.06,25.73-7.47,1.8-1.34,3.16-1.41,4.94,0,10.34,10.4,22.73,3.85,31.52,10.82,4.36,3.5,7.23,10.11,9.09,15.4,8.63,24.17,7.2,57.06-10.36,76.75-1.87,1.9-4.85,2.61-5.85,4.59-.97,1.92,1.85,3.76,3.72,4.4,39.28,14.68,37.08,17.08,48.72,11.92M290.83,151.65,144.17,72.98c-4.43.53-8.58,3.37-13.21,3.37-5.83.39-9.12-1.19-13.54,2.58-7.58,6.76-10.42,16.49-12.1,27.2-1.13,7.96-1.16,16.11-.6,23.08,1.89,44.88,62.88,62.05,78.21,14.65,3.73-11.97,4.13-24.61,2.15-38.72-1.96-11.12-4.96-20.13-12.95-26.39-4.38-3.33-7.24-2.07-12.64-2.35-5.28.14-10.02-3.3-15.15-3.43h-.17ZM149.02,213.27c-.59-7.32-1.81-31.89-2.37-34.73-2.58-1.08-13.22-3.04-16.6-3.98-.76-.17-1.03-.22-1.12-.14-.58,5.5-7.3,94.51-7.81,100.42,1.68,6.64,24.19,2.35,29.76,3.52M176.75,277.7c1.11-20.34-1.06-40.78-2.96-61.05-.94-9.51-2.25-21.69-3.84-30.28-.77-3.38-.95-7.25-3.65-9.76-3.23-2.81-9.2.02-12.8,2.53-.52.43-.68.51-.69.91.23,5.68,2.96,71.8,3.79,91.87.08,2.04.16,3.86.24,5.81.08.75-.32.71,2.01.71,4.75.01,10.3,0,14.95,0,1.68,0,2.6.12,2.91-.65l.04-.1ZM104.74,198.09c-4.65-1.37-18,16.59-19.87,19.93-3.86,5.06.17,10.34,4.46,13.82,2.35,1.98,6.03,4.67,8.13,6.28.25.15.39.17.48.05.76-4.54,5.62-30.23,6.83-40.05l-.03-.03Z"/>
    <path d="M223.91,187.69c1.4-2.73,5.72-13.78,5.8-16.28.11-3.35-5.7-10.28-5.57-13.88.05-1.51,1.84-3.6,2.15-5.43.88-5.22.17-19.22,6.91-18.08,5.3.89.65,11.48.52,15.02,8,1.4,18.44,1.62,14.2,12.72-2.29,6-9.26,8.69-11.66,12.31-3.4,5.13-3.73,18.55-8.52,25.7"/>
  </g>
</svg>