<?xml version="1.0" encoding="UTF-8"?>
<svg id="Layer_2" data-name="Layer 2" xmlns="http://www.w3.org/2000/svg" viewBox="0 0 105.13 83.03">
  <defs>
    <style>
      .cls-1 {
        fill: none;
        stroke: #000;
        stroke-miterlimit: 10;
        stroke-width: 3px;
      }
    </style>
  </defs>
  <g id="Layer_1-2" data-name="Layer 1">
    <g id="Generative_Object" data-name="Generative Object">
      <path class="cls-1" d="M53.81,1.52c.1,0,.56.14.87.17.15.02.58.13.87.17.08.01.44.13.69.17.26.04.59.12.87.17s.59.12.87.17.59.12.87.17c.21.04.46.13.69.17.28.06.59.11.87.17.21.04.46.12.69.17.21.05.46.12.69.17.29.06.58.11.87.17.21.05.46.12.69.17.21.05.46.12.69.17.21.05.46.12.69.17.21.05.47.12.69.17.22.05.47.12.69.17.3.07.59.1.87.17.23.06.47.12.69.17s.47.11.69.17.47.11.69.17.47.11.69.17.47.11.69.17.47.11.69.17c.24.06.47.11.69.17s.46.11.69.17.47.11.69.17.47.11.69.17.47.11.69.17c.24.07.47.11.69.17.24.07.48.11.69.17.24.07.49.11.69.17,1.21.6,1.51,1.13,2.43,2,2.18,2.05,17.92,18.75,18.4,20.05.05.15.07.51.17.87.08.26.1.57.17.87.07.27.1.57.17.87.07.28.1.57.17.87.06.28.11.57.17.87s.11.57.17.87.11.58.17.87.11.57.17.87.11.57.17.87.11.57.17.87.11.57.17.87.11.58.17.87.11.58.17.87.11.58.17.87.11.58.17.87.11.58.17.87c.07.34.1.68.17,1.04.06.29.12.59.17.87s.12.59.17.87.12.59.17.87.12.59.17.87.12.59.17.87.12.59.17.87.12.59.17.87.12.59.17.87c.05.29.12.59.17.87s.12.59.17.87c.07.34.11.69.17,1.04.05.27.15.57.17.69.05.29.13.6.17.87.06.34.11.69.17,1.04.04.26.16.62.17.69.04.28.16.74.17.87.03.32.16.75.17.87.02.26-.14.77.17.87v.35l-16.23,21.7H16.93c-4.89-7.38-10.2-14.67-14.67-22.22.3-.09.16-.61.17-.87.04-.32.13-.7.17-1.04.03-.3.13-.71.17-1.04.05-.33.12-.7.17-1.04.04-.27.13-.57.17-.87.05-.34.12-.7.17-1.04.05-.27.12-.58.17-.87.06-.34.11-.7.17-1.04.05-.27.12-.58.17-.87.05-.27.12-.58.17-.87.06-.35.11-.7.17-1.04.05-.27.12-.58.17-.87.05-.27.12-.58.17-.87s.12-.58.17-.87.12-.58.17-.87c.07-.36.11-.7.17-1.04.06-.28.12-.58.17-.87s.12-.58.17-.87.11-.58.17-.87c.07-.36.1-.7.17-1.04.04-.21.12-.46.17-.69.08-.36.1-.7.17-1.04.06-.29.11-.58.17-.87s.11-.59.17-.87c.07-.29.11-.58.17-.87.12-.43.11-.85.17-1.04.09-.26.29-.48.17-.87,7.2-9.13,14.11-18.69,21.7-27.42.42.1.67-.05,1.04-.17.23-.06.47-.12.69-.17.28-.07.56-.1.87-.17.28-.07.56-.1.87-.17.22-.06.45-.11.69-.17.23-.06.45-.16.52-.17.23-.06.46-.11.69-.17s.46-.11.69-.17.46-.11.69-.17.47-.12.69-.17.47-.12.69-.17.47-.12.69-.17.47-.12.69-.17.47-.12.69-.17.47-.12.69-.17c.23-.06.48-.16.52-.17.23-.05.48-.12.69-.17.23-.05.48-.13.69-.17.28-.06.57-.11.87-.17.23-.05.48-.12.69-.17.23-.05.48-.12.69-.17.23-.05.48-.13.69-.17.23-.05.48-.13.69-.17.23-.05.49-.13.69-.17.28-.06.59-.12.87-.17s.59-.12.87-.17.58-.12.87-.17c.33-.07.7-.11,1.04-.17.3-.04.73-.16.87-.17.31-.03.76-.16.87-.17.35-.03.89-.17,1.04-.17.51-.03,1.05-.02,1.56,0Z"/>
    </g>
  </g>
</svg>
